# xmcd
#
# Track frame offsets:
#	182
#	10900
#	24255
#	37537
#	51337
#	64320
#	78742
#	89280
#	99597
#	111200
#	126537
#	132897
#	143975
#	158167
#	170167
#	182607
#	191250
#	203662
#
# Disc length: 2801 seconds
#
# Revision: 0
# Processed by: cddbd v1.5PL3 Copyright (c) Steve Scherf et al.
# Submitted via: MusicWizard 6.0.1
#
DISCID=f30aef12
DTITLE=Various Artist - Country's Golden Greats (Disk 3)
DYEAR=1900
DGENRE=
TTITLE0=Johnny Russel - Act Naturally
TTITLE1=Don Williams - Where Do I Go From Here
TTITLE2=Faron Young - Swinging Doors
TTITLE3=Willie Nelson - A Moment Isn't Very Long
TTITLE4=Johnny Russel - Goodhearted Woman
TTITLE5=Freddie Fender - Wasted Days and Wasted Nights
TTITLE6=Boxcar Willie - Jambalaya
TTITLE7=Carl Perkins - Daddy Sang Bass
TTITLE8=Johnny Paycheck - Heartaches By The Number
TTITLE9=Jim Reeves - Making Believe
TTITLE10=George Jones - Chicken Reel
TTITLE11=Waylon Jennings - Dream Baby
TTITLE12=Jimmy Dean - Release Me
TTITLE13=Don Williams - Follow Me Back From Louisville
TTITLE14=Stonewall Jackson - Ol' Blue
TTITLE15=Boxcar Willie - If You've Got The Money
TTITLE16=Johnny Paycheck - Crazy Arms
TTITLE17=Jim Reeves - I'm Beginning To Forget You
EXTD=
EXTT0=
EXTT1=
EXTT2=
EXTT3=
EXTT4=
EXTT5=
EXTT6=
EXTT7=
EXTT8=
EXTT9=
EXTT10=
EXTT11=
EXTT12=
EXTT13=
EXTT14=
EXTT15=
EXTT16=
EXTT17=
PLAYORDER=
